<svg xmlns="http://www.w3.org/2000/svg" width="55" height="56" viewBox="0 0 55 56">
  <g id="coin" transform="translate(-0.5)">
    <path id="XMLID_91_" d="M31,56C17.469,56,6.5,43.464,6.5,28S17.469,0,31,0,55.5,12.536,55.5,28,44.531,56,31,56" fill="#fcc62d"/>
    <path id="XMLID_136_" d="M6.5,28C6.5,13.7,15.885,1.908,28,.217A21.574,21.574,0,0,0,25,0C11.469,0,.5,12.536.5,28S11.469,56,25,56a21.729,21.729,0,0,0,3-.216C15.885,54.092,6.5,42.3,6.5,28" fill="#e4af18"/>
    <path id="XMLID_135_" d="M6.5,29H.5c.02.673.058,1.34.119,2h6q-.093-.989-.124-2" fill="#ce9912"/>
    <path id="XMLID_134_" d="M6.727,24h-6c-.083.659-.142,1.327-.185,2h6c.043-.672.1-1.34.182-2" fill="#ce9912"/>
    <path id="XMLID_133_" d="M7.049,34h-6q.195,1.014.451,2h6q-.257-.984-.449-2" fill="#ce9912"/>
    <path id="XMLID_132_" d="M8.448,39h-6c.255.682.536,1.347.837,2h6q-.451-.977-.835-2" fill="#ce9912"/>
    <path id="XMLID_131_" d="M7.773,19H1.778c-.194.657-.376,1.322-.528,2H7.257c.151-.675.321-1.344.516-2" fill="#ce9912"/>
    <path id="XMLID_130_" d="M9.764,14h-6c-.329.651-.64,1.317-.924,2h6q.426-1.024.921-2" fill="#ce9912"/>
    <path id="XMLID_129_" d="M13.845,8H7.838q-.853.954-1.622,2h6.005q.768-1.045,1.624-2" fill="#ce9912"/>
    <path id="XMLID_128_" d="M19.959,3H13.945a24.126,24.126,0,0,0-2.936,2h6.009a24.253,24.253,0,0,1,2.941-2" fill="#ce9912"/>
    <path id="XMLID_127_" d="M11.519,45h-6q.7,1.04,1.473,2H13q-.78-.96-1.478-2" fill="#ce9912"/>
    <path id="XMLID_126_" d="M9.834,50a24.773,24.773,0,0,0,2.524,2h6.015a24.734,24.734,0,0,1-2.542-2Z" fill="#ce9912"/>
    <path id="XMLID_109_" d="M31.085,50.524H31a17.822,17.822,0,0,1-2.095-.124,1,1,0,0,1,.237-1.986,15.7,15.7,0,0,0,1.857.11,1.036,1.036,0,0,1,1.042,1,.963.963,0,0,1-.956,1M36.9,49.447a1,1,0,0,1-.354-1.936,16.491,16.491,0,0,0,1.706-.757,1,1,0,1,1,.914,1.778,18.233,18.233,0,0,1-1.915.85.982.982,0,0,1-.351.065m-13.535-.764a.987.987,0,0,1-.452-.109A18.753,18.753,0,0,1,21.1,47.526a1,1,0,1,1,1.1-1.672,16.944,16.944,0,0,0,1.618.937,1,1,0,0,1-.453,1.892m20.111-3.558a1,1,0,0,1-.712-1.7c.437-.44.858-.913,1.259-1.4a1,1,0,0,1,1.551,1.262c-.44.54-.907,1.061-1.387,1.547a1,1,0,0,1-.711.3m-26.22-1.407a1,1,0,0,1-.773-.366c-.432-.525-.848-1.085-1.238-1.664A1,1,0,1,1,16.9,40.569c.356.527.736,1.038,1.129,1.516a1,1,0,0,1-.775,1.633M47.87,38.579a1.012,1.012,0,0,1-.4-.083,1,1,0,0,1-.517-1.317c.251-.576.479-1.172.682-1.769a1,1,0,1,1,1.9.638c-.221.652-.471,1.3-.743,1.93a1,1,0,0,1-.919.6M13.445,36.813a1,1,0,0,1-.947-.678c-.221-.648-.418-1.316-.585-1.982a1,1,0,0,1,1.942-.483c.151.611.332,1.224.535,1.82a1,1,0,0,1-.945,1.323m36.316-5.9c-.024,0-.052,0-.078,0a1,1,0,0,1-.92-1.074c.048-.6.07-1.221.07-1.838a1.029,1.029,0,0,1,1-1.033.972.972,0,0,1,1,.968V28c0,.669-.025,1.339-.076,1.992a1,1,0,0,1-1,.923m-37.6-1.9a.99.99,0,0,1-1-.988V28c0-.675.028-1.36.081-2.036a1,1,0,0,1,1.994.157c-.049.624-.075,1.256-.075,1.879a1.009,1.009,0,0,1-1,1.011M49.1,23.047a1,1,0,0,1-.97-.756c-.152-.611-.335-1.223-.54-1.819a1,1,0,0,1,1.893-.65c.222.649.42,1.316.587,1.981a1,1,0,0,1-.728,1.213.919.919,0,0,1-.242.031M13.431,21.231a1,1,0,0,1-.946-1.322c.221-.654.473-1.3.748-1.929a1,1,0,0,1,1.832.8c-.252.574-.483,1.169-.687,1.768a1,1,0,0,1-.947.68M45.9,15.837a1,1,0,0,1-.829-.439c-.353-.52-.733-1.029-1.131-1.513a1,1,0,0,1,1.545-1.271c.437.532.854,1.092,1.242,1.662a1,1,0,0,1-.269,1.389.99.99,0,0,1-.558.172m-28.674-1.52a1,1,0,0,1-.774-1.632c.439-.538.907-1.058,1.389-1.544a1,1,0,0,1,1.42,1.408c-.437.441-.86.913-1.261,1.4a1,1,0,0,1-.774.367m23.082-4.03a1,1,0,0,1-.546-.162,16.467,16.467,0,0,0-1.62-.933,1,1,0,0,1,.9-1.786A18.752,18.752,0,0,1,40.859,8.45a1,1,0,0,1-.548,1.837M23.328,9.338a1,1,0,0,1-.457-1.891A18.456,18.456,0,0,1,24.788,6.6a1,1,0,1,1,.7,1.873,16.349,16.349,0,0,0-1.708.753,1,1,0,0,1-.454.11m9.606-1.75a.909.909,0,0,1-.115-.007A15.822,15.822,0,0,0,31,7.476a1.019,1.019,0,0,1-1.021-1,.982.982,0,0,1,.978-1H31a17.75,17.75,0,0,1,2.048.119,1,1,0,0,1-.114,1.993" fill="#ffd949"/>
    <path id="Path_1" data-name="Path 1" d="M1.6-14.28V9.91H4.122V-10.214h.056L10.425,9.91h2.269l6.248-20.124H19V9.91H21.52V-14.28H17.878L11.546,6.048,5.242-14.28Z" transform="translate(19.5 30)" fill="#ce9912"/>
  </g>
</svg>
